# xmcd
#
# Track frame offsets:
#       150
#       14721
#       32721
#       48180
#       61276
#       76694
#       97156
#       109051
#       125223
#       141652
#       155245
#       173356
#       197206
#       212925
#
# Disc length: 3168 seconds
#
# Revision: 1
# Processed by: cddbd v1.5.2PL0 Copyright (c) Steve Scherf et al.
# Submitted via: MusiCat 1.1
#
DISCID=cf0c5e0e
DTITLE=James Taylor - Greatest Hits
DYEAR=1900
DGENRE=
TTITLE0=Something In The Way She Moves
TTITLE1=Carolina In My Mind
TTITLE2=Fire And Rain
TTITLE3=Sweet Baby james
TTITLE4=Country Road
TTITLE5=You've Got A Friend
TTITLE6=Don't Let Me Be Alone
TTITLE7=Walking Man
TTITLE8=How Sweet It Is (To Be Loved By You)
TTITLE9=Mexico
TTITLE10=Shower The People
TTITLE11=Steam Roller
TTITLE12=How Sweet It Is (To Be Loved By You)
TTITLE13=Steamroller Blues (live3)
EXTD=\n\n
EXTT0=
EXTT1=
EXTT2=
EXTT3=
EXTT4=
EXTT5=
EXTT6=
EXTT7=
EXTT8=
EXTT9=
EXTT10=
EXTT11=
EXTT12=
EXTT13=
PLAYORDER=
